<svg width="30" height="30" viewBox="0 0 30 30" fill="none" xmlns="http://www.w3.org/2000/svg">
<path d="M15 2.54999C8.125 2.54999 2.5 8.16249 2.5 15.075C2.5 21.325 7.075 26.5125 13.05 27.45V18.7H9.875V15.075H13.05V12.3125C13.05 9.17499 14.9125 7.44999 17.775 7.44999C19.1375 7.44999 20.5625 7.68749 20.5625 7.68749V10.775H18.9875C17.4375 10.775 16.95 11.7375 16.95 12.725V15.075H20.425L19.8625 18.7H16.95V27.45C19.8956 26.9848 22.5778 25.4819 24.5124 23.2126C26.4471 20.9432 27.5067 18.057 27.5 15.075C27.5 8.16249 21.875 2.54999 15 2.54999Z" fill="#454545"/>
</svg>
