<svg width="30" height="30" viewBox="0 0 30 30" fill="none" xmlns="http://www.w3.org/2000/svg">
<path d="M15.05 2.50001C8.225 2.50001 2.6625 8.06251 2.6625 14.8875C2.6625 17.075 3.2375 19.2 4.3125 21.075L2.5625 27.5L9.125 25.775C10.9375 26.7625 12.975 27.2875 15.05 27.2875C21.875 27.2875 27.4375 21.725 27.4375 14.9C27.4375 11.5875 26.15 8.47501 23.8125 6.13751C22.6665 4.97992 21.3015 4.0621 19.797 3.43758C18.2926 2.81306 16.6789 2.49434 15.05 2.50001ZM15.0625 4.58751C17.8125 4.58751 20.3875 5.66251 22.3375 7.61251C23.2945 8.56921 24.0532 9.70541 24.5702 10.956C25.0872 12.2065 25.3522 13.5468 25.35 14.9C25.35 20.575 20.725 25.1875 15.05 25.1875C13.2 25.1875 11.3875 24.7 9.8125 23.75L9.4375 23.5375L5.5375 24.5625L6.575 20.7625L6.325 20.3625C5.29243 18.7234 4.74627 16.8248 4.75 14.8875C4.7625 9.21251 9.375 4.58751 15.0625 4.58751ZM10.6625 9.16251C10.4625 9.16251 10.125 9.23751 9.8375 9.55001C9.5625 9.86251 8.75 10.625 8.75 12.1375C8.75 13.6625 9.8625 15.125 10 15.3375C10.175 15.55 12.2 18.675 15.3125 20C16.05 20.3375 16.625 20.525 17.075 20.6625C17.8125 20.9 18.4875 20.8625 19.025 20.7875C19.625 20.7 20.85 20.0375 21.1125 19.3125C21.375 18.5875 21.375 17.975 21.3 17.8375C21.2125 17.7125 21.0125 17.6375 20.7 17.5C20.3875 17.325 18.8625 16.575 18.5875 16.475C18.3 16.375 18.125 16.325 17.8875 16.625C17.6875 16.9375 17.0875 17.6375 16.9125 17.8375C16.725 18.05 16.55 18.075 16.25 17.925C15.925 17.7625 14.925 17.4375 13.75 16.3875C12.825 15.5625 12.2125 14.55 12.025 14.2375C11.875 13.9375 12.0125 13.75 12.1625 13.6125C12.3 13.475 12.5 13.25 12.625 13.0625C12.7875 12.8875 12.8375 12.75 12.9375 12.55C13.0375 12.3375 12.9875 12.1625 12.9125 12.0125C12.8375 11.875 12.2125 10.325 11.95 9.71251C11.7 9.11251 11.45 9.18751 11.25 9.17501C11.075 9.17501 10.875 9.16251 10.6625 9.16251Z" fill="#454545"/>
</svg>
